<?xml version="1.0" encoding="UTF-8"?><svg xmlns="http://www.w3.org/2000/svg" width="1920" height="1080" viewBox="0 0 1920 1080"><defs><marker id="arrow" markerWidth="12" markerHeight="12" refX="10" refY="5" orient="auto" markerUnits="strokeWidth"><path d="M0,0 L0,10 L10,5 z" fill="context-stroke"/></marker><filter id="shadow" x="-20%" y="-20%" width="140%" height="140%"><feDropShadow dx="0" dy="8" stdDeviation="12" flood-color="#0F172A" flood-opacity="0.10"/></filter></defs><rect width="100%" height="100%" fill="#F8FAFC"/><text x="80" y="78" text-anchor="start" font-family="Inter, Arial, sans-serif" font-size="44" font-weight="800" fill="#172033"><tspan x="80" dy="0">Frontend Modules: Roles and Backend Analogies</tspan></text><text x="80" y="118" text-anchor="start" font-family="Inter, Arial, sans-serif" font-size="22" font-weight="450" fill="#58657A"><tspan x="80" dy="0">A bridge from familiar FastAPI concepts to React</tspan></text><rect x="80" y="160" width="450" height="62" rx="10" fill="#4F46E5" stroke="#4F46E5" stroke-width="0"/><text x="100" y="201" text-anchor="start" font-family="Inter, Arial, sans-serif" font-size="23" font-weight="800" fill="#FFFFFF"><tspan x="100" dy="0">React module</tspan></text><rect x="555" y="160" width="470" height="62" rx="10" fill="#4F46E5" stroke="#4F46E5" stroke-width="0"/><text x="575" y="201" text-anchor="start" font-family="Inter, Arial, sans-serif" font-size="23" font-weight="800" fill="#FFFFFF"><tspan x="575" dy="0">Rough FastAPI analogy</tspan></text><rect x="1050" y="160" width="375" height="62" rx="10" fill="#4F46E5" stroke="#4F46E5" stroke-width="0"/><text x="1070" y="201" text-anchor="start" font-family="Inter, Arial, sans-serif" font-size="23" font-weight="800" fill="#FFFFFF"><tspan x="1070" dy="0">Main responsibility</tspan></text><rect x="1450" y="160" width="390" height="62" rx="10" fill="#4F46E5" stroke="#4F46E5" stroke-width="0"/><text x="1470" y="201" text-anchor="start" font-family="Inter, Arial, sans-serif" font-size="23" font-weight="800" fill="#FFFFFF"><tspan x="1470" dy="0">MiniTrack example</tspan></text><rect x="80" y="232" width="450" height="77" rx="0" fill="#F1F5F9" stroke="#CBD5E1" stroke-width="1"/><text x="100" y="278" text-anchor="start" font-family="Inter, Arial, sans-serif" font-size="23" font-weight="800" fill="#4F46E5"><tspan x="100" dy="0">api/</tspan></text><rect x="555" y="232" width="470" height="77" rx="0" fill="#F1F5F9" stroke="#CBD5E1" stroke-width="1"/><text x="575" y="278" text-anchor="start" font-family="Inter, Arial, sans-serif" font-size="21" font-weight="500" fill="#172033"><tspan x="575" dy="0">httpx client</tspan></text><rect x="1050" y="232" width="375" height="77" rx="0" fill="#F1F5F9" stroke="#CBD5E1" stroke-width="1"/><text x="1070" y="278" text-anchor="start" font-family="Inter, Arial, sans-serif" font-size="21" font-weight="500" fill="#172033"><tspan x="1070" dy="0">Talk to the server</tspan></text><rect x="1450" y="232" width="390" height="77" rx="0" fill="#F1F5F9" stroke="#CBD5E1" stroke-width="1"/><text x="1470" y="278" text-anchor="start" font-family="Inter, Arial, sans-serif" font-size="21" font-weight="500" fill="#172033"><tspan x="1470" dy="0">listTasks()</tspan></text><rect x="80" y="319" width="450" height="77" rx="0" fill="#FFFFFF" stroke="#CBD5E1" stroke-width="1"/><text x="100" y="365" text-anchor="start" font-family="Inter, Arial, sans-serif" font-size="23" font-weight="800" fill="#4F46E5"><tspan x="100" dy="0">auth/</tspan></text><rect x="555" y="319" width="470" height="77" rx="0" fill="#FFFFFF" stroke="#CBD5E1" stroke-width="1"/><text x="575" y="365" text-anchor="start" font-family="Inter, Arial, sans-serif" font-size="21" font-weight="500" fill="#172033"><tspan x="575" dy="0">Auth dependency</tspan></text><rect x="1050" y="319" width="375" height="77" rx="0" fill="#FFFFFF" stroke="#CBD5E1" stroke-width="1"/><text x="1070" y="365" text-anchor="start" font-family="Inter, Arial, sans-serif" font-size="21" font-weight="500" fill="#172033"><tspan x="1070" dy="0">Store key and gate screens</tspan></text><rect x="1450" y="319" width="390" height="77" rx="0" fill="#FFFFFF" stroke="#CBD5E1" stroke-width="1"/><text x="1470" y="365" text-anchor="start" font-family="Inter, Arial, sans-serif" font-size="21" font-weight="500" fill="#172033"><tspan x="1470" dy="0">ProtectedRoute</tspan></text><rect x="80" y="406" width="450" height="77" rx="0" fill="#F1F5F9" stroke="#CBD5E1" stroke-width="1"/><text x="100" y="452" text-anchor="start" font-family="Inter, Arial, sans-serif" font-size="23" font-weight="800" fill="#4F46E5"><tspan x="100" dy="0">components/</tspan></text><rect x="555" y="406" width="470" height="77" rx="0" fill="#F1F5F9" stroke="#CBD5E1" stroke-width="1"/><text x="575" y="452" text-anchor="start" font-family="Inter, Arial, sans-serif" font-size="21" font-weight="500" fill="#172033"><tspan x="575" dy="0">Reusable helpers</tspan></text><rect x="1050" y="406" width="375" height="77" rx="0" fill="#F1F5F9" stroke="#CBD5E1" stroke-width="1"/><text x="1070" y="452" text-anchor="start" font-family="Inter, Arial, sans-serif" font-size="21" font-weight="500" fill="#172033"><tspan x="1070" dy="0">Reusable UI pieces</tspan></text><rect x="1450" y="406" width="390" height="77" rx="0" fill="#F1F5F9" stroke="#CBD5E1" stroke-width="1"/><text x="1470" y="452" text-anchor="start" font-family="Inter, Arial, sans-serif" font-size="21" font-weight="500" fill="#172033"><tspan x="1470" dy="0">TaskCard</tspan></text><rect x="80" y="493" width="450" height="77" rx="0" fill="#FFFFFF" stroke="#CBD5E1" stroke-width="1"/><text x="100" y="539" text-anchor="start" font-family="Inter, Arial, sans-serif" font-size="23" font-weight="800" fill="#4F46E5"><tspan x="100" dy="0">pages/</tspan></text><rect x="555" y="493" width="470" height="77" rx="0" fill="#FFFFFF" stroke="#CBD5E1" stroke-width="1"/><text x="575" y="539" text-anchor="start" font-family="Inter, Arial, sans-serif" font-size="21" font-weight="500" fill="#172033"><tspan x="575" dy="0">Route handler</tspan></text><rect x="1050" y="493" width="375" height="77" rx="0" fill="#FFFFFF" stroke="#CBD5E1" stroke-width="1"/><text x="1070" y="539" text-anchor="start" font-family="Inter, Arial, sans-serif" font-size="21" font-weight="500" fill="#172033"><tspan x="1070" dy="0">Coordinate a full screen</tspan></text><rect x="1450" y="493" width="390" height="77" rx="0" fill="#FFFFFF" stroke="#CBD5E1" stroke-width="1"/><text x="1470" y="539" text-anchor="start" font-family="Inter, Arial, sans-serif" font-size="21" font-weight="500" fill="#172033"><tspan x="1470" dy="0">TaskListPage</tspan></text><rect x="80" y="580" width="450" height="77" rx="0" fill="#F1F5F9" stroke="#CBD5E1" stroke-width="1"/><text x="100" y="626" text-anchor="start" font-family="Inter, Arial, sans-serif" font-size="23" font-weight="800" fill="#4F46E5"><tspan x="100" dy="0">hooks/</tspan></text><rect x="555" y="580" width="470" height="77" rx="0" fill="#F1F5F9" stroke="#CBD5E1" stroke-width="1"/><text x="575" y="626" text-anchor="start" font-family="Inter, Arial, sans-serif" font-size="21" font-weight="500" fill="#172033"><tspan x="575" dy="0">Reusable helper</tspan></text><rect x="1050" y="580" width="375" height="77" rx="0" fill="#F1F5F9" stroke="#CBD5E1" stroke-width="1"/><text x="1070" y="626" text-anchor="start" font-family="Inter, Arial, sans-serif" font-size="21" font-weight="500" fill="#172033"><tspan x="1070" dy="0">Package stateful behavior</tspan></text><rect x="1450" y="580" width="390" height="77" rx="0" fill="#F1F5F9" stroke="#CBD5E1" stroke-width="1"/><text x="1470" y="626" text-anchor="start" font-family="Inter, Arial, sans-serif" font-size="21" font-weight="500" fill="#172033"><tspan x="1470" dy="0">useFlash()</tspan></text><rect x="80" y="667" width="450" height="77" rx="0" fill="#FFFFFF" stroke="#CBD5E1" stroke-width="1"/><text x="100" y="713" text-anchor="start" font-family="Inter, Arial, sans-serif" font-size="23" font-weight="800" fill="#4F46E5"><tspan x="100" dy="0">types/</tspan></text><rect x="555" y="667" width="470" height="77" rx="0" fill="#FFFFFF" stroke="#CBD5E1" stroke-width="1"/><text x="575" y="713" text-anchor="start" font-family="Inter, Arial, sans-serif" font-size="21" font-weight="500" fill="#172033"><tspan x="575" dy="0">Pydantic schemas</tspan></text><rect x="1050" y="667" width="375" height="77" rx="0" fill="#FFFFFF" stroke="#CBD5E1" stroke-width="1"/><text x="1070" y="713" text-anchor="start" font-family="Inter, Arial, sans-serif" font-size="21" font-weight="500" fill="#172033"><tspan x="1070" dy="0">Describe data shapes</tspan></text><rect x="1450" y="667" width="390" height="77" rx="0" fill="#FFFFFF" stroke="#CBD5E1" stroke-width="1"/><text x="1470" y="713" text-anchor="start" font-family="Inter, Arial, sans-serif" font-size="21" font-weight="500" fill="#172033"><tspan x="1470" dy="0">Task interface</tspan></text><rect x="80" y="754" width="450" height="77" rx="0" fill="#F1F5F9" stroke="#CBD5E1" stroke-width="1"/><text x="100" y="800" text-anchor="start" font-family="Inter, Arial, sans-serif" font-size="23" font-weight="800" fill="#4F46E5"><tspan x="100" dy="0">styles/</tspan></text><rect x="555" y="754" width="470" height="77" rx="0" fill="#F1F5F9" stroke="#CBD5E1" stroke-width="1"/><text x="575" y="800" text-anchor="start" font-family="Inter, Arial, sans-serif" font-size="21" font-weight="500" fill="#172033"><tspan x="575" dy="0">Shared configuration</tspan></text><rect x="1050" y="754" width="375" height="77" rx="0" fill="#F1F5F9" stroke="#CBD5E1" stroke-width="1"/><text x="1070" y="800" text-anchor="start" font-family="Inter, Arial, sans-serif" font-size="21" font-weight="500" fill="#172033"><tspan x="1070" dy="0">Consistent visual language</tspan></text><rect x="1450" y="754" width="390" height="77" rx="0" fill="#F1F5F9" stroke="#CBD5E1" stroke-width="1"/><text x="1470" y="800" text-anchor="start" font-family="Inter, Arial, sans-serif" font-size="21" font-weight="500" fill="#172033"><tspan x="1470" dy="0">tokens.css</tspan></text><rect x="80" y="841" width="450" height="77" rx="0" fill="#FFFFFF" stroke="#CBD5E1" stroke-width="1"/><text x="100" y="887" text-anchor="start" font-family="Inter, Arial, sans-serif" font-size="23" font-weight="800" fill="#4F46E5"><tspan x="100" dy="0">App.tsx</tspan></text><rect x="555" y="841" width="470" height="77" rx="0" fill="#FFFFFF" stroke="#CBD5E1" stroke-width="1"/><text x="575" y="887" text-anchor="start" font-family="Inter, Arial, sans-serif" font-size="21" font-weight="500" fill="#172033"><tspan x="575" dy="0">APIRouter composition</tspan></text><rect x="1050" y="841" width="375" height="77" rx="0" fill="#FFFFFF" stroke="#CBD5E1" stroke-width="1"/><text x="1070" y="887" text-anchor="start" font-family="Inter, Arial, sans-serif" font-size="21" font-weight="500" fill="#172033"><tspan x="1070" dy="0">Map URLs to screens</tspan></text><rect x="1450" y="841" width="390" height="77" rx="0" fill="#FFFFFF" stroke="#CBD5E1" stroke-width="1"/><text x="1470" y="887" text-anchor="start" font-family="Inter, Arial, sans-serif" font-size="21" font-weight="500" fill="#172033"><tspan x="1470" dy="0">/tasks/:taskId</tspan></text><rect x="80" y="928" width="450" height="77" rx="0" fill="#F1F5F9" stroke="#CBD5E1" stroke-width="1"/><text x="100" y="974" text-anchor="start" font-family="Inter, Arial, sans-serif" font-size="23" font-weight="800" fill="#4F46E5"><tspan x="100" dy="0">main.tsx</tspan></text><rect x="555" y="928" width="470" height="77" rx="0" fill="#F1F5F9" stroke="#CBD5E1" stroke-width="1"/><text x="575" y="974" text-anchor="start" font-family="Inter, Arial, sans-serif" font-size="21" font-weight="500" fill="#172033"><tspan x="575" dy="0">Application startup</tspan></text><rect x="1050" y="928" width="375" height="77" rx="0" fill="#F1F5F9" stroke="#CBD5E1" stroke-width="1"/><text x="1070" y="974" text-anchor="start" font-family="Inter, Arial, sans-serif" font-size="21" font-weight="500" fill="#172033"><tspan x="1070" dy="0">Start React in the browser</tspan></text><rect x="1450" y="928" width="390" height="77" rx="0" fill="#F1F5F9" stroke="#CBD5E1" stroke-width="1"/><text x="1470" y="974" text-anchor="start" font-family="Inter, Arial, sans-serif" font-size="21" font-weight="500" fill="#172033"><tspan x="1470" dy="0">createRoot()</tspan></text></svg>