<?xml version="1.0" encoding="UTF-8"?><svg xmlns="http://www.w3.org/2000/svg" width="1920" height="1080" viewBox="0 0 1920 1080"><defs><marker id="arrow" markerWidth="12" markerHeight="12" refX="10" refY="5" orient="auto" markerUnits="strokeWidth"><path d="M0,0 L0,10 L10,5 z" fill="context-stroke"/></marker><filter id="shadow" x="-20%" y="-20%" width="140%" height="140%"><feDropShadow dx="0" dy="8" stdDeviation="12" flood-color="#0F172A" flood-opacity="0.10"/></filter></defs><rect width="100%" height="100%" fill="#F8FAFC"/><text x="80" y="78" text-anchor="start" font-family="Inter, Arial, sans-serif" font-size="44" font-weight="800" fill="#172033"><tspan x="80" dy="0">Loading the MiniTrack Task List</tspan></text><text x="80" y="118" text-anchor="start" font-family="Inter, Arial, sans-serif" font-size="22" font-weight="450" fill="#58657A"><tspan x="80" dy="0">What happens after the user opens /tasks</tspan></text><rect x="20" y="160" width="260" height="72" rx="16" fill="#FFFFFF" stroke="#172033" stroke-width="3"/><text x="150" y="205" text-anchor="middle" font-family="Inter, Arial, sans-serif" font-size="24" font-weight="800" fill="#172033"><tspan x="150" dy="0">Browser</tspan></text><line x1="150" y1="232" x2="150" y2="975" stroke="#CBD5E1" stroke-width="2" stroke-dasharray="9 8"/><rect x="380" y="160" width="260" height="72" rx="16" fill="#FFFFFF" stroke="#7E22CE" stroke-width="3"/><text x="510" y="205" text-anchor="middle" font-family="Inter, Arial, sans-serif" font-size="24" font-weight="800" fill="#7E22CE"><tspan x="510" dy="0">App + Guard</tspan></text><line x1="510" y1="232" x2="510" y2="975" stroke="#CBD5E1" stroke-width="2" stroke-dasharray="9 8"/><rect x="740" y="160" width="260" height="72" rx="16" fill="#FFFFFF" stroke="#15803D" stroke-width="3"/><text x="870" y="205" text-anchor="middle" font-family="Inter, Arial, sans-serif" font-size="24" font-weight="800" fill="#15803D"><tspan x="870" dy="0">TaskListPage</tspan></text><line x1="870" y1="232" x2="870" y2="975" stroke="#CBD5E1" stroke-width="2" stroke-dasharray="9 8"/><rect x="1100" y="160" width="260" height="72" rx="16" fill="#FFFFFF" stroke="#2563EB" stroke-width="3"/><text x="1230" y="205" text-anchor="middle" font-family="Inter, Arial, sans-serif" font-size="24" font-weight="800" fill="#2563EB"><tspan x="1230" dy="0">API modules</tspan></text><line x1="1230" y1="232" x2="1230" y2="975" stroke="#CBD5E1" stroke-width="2" stroke-dasharray="9 8"/><rect x="1460" y="160" width="260" height="72" rx="16" fill="#FFFFFF" stroke="#B91C1C" stroke-width="3"/><text x="1590" y="205" text-anchor="middle" font-family="Inter, Arial, sans-serif" font-size="24" font-weight="800" fill="#B91C1C"><tspan x="1590" dy="0">FastAPI</tspan></text><line x1="1590" y1="232" x2="1590" y2="975" stroke="#CBD5E1" stroke-width="2" stroke-dasharray="9 8"/><line x1="150" y1="290" x2="510" y2="290" stroke="#7E22CE" stroke-width="4"  marker-end="url(#arrow)"/><text x="330" y="274" text-anchor="middle" font-family="Inter, Arial, sans-serif" font-size="21" font-weight="700" fill="#7E22CE"><tspan x="330" dy="0">1. Open /tasks</tspan></text><line x1="510" y1="395" x2="870" y2="395" stroke="#7E22CE" stroke-width="4"  marker-end="url(#arrow)"/><text x="690" y="379" text-anchor="middle" font-family="Inter, Arial, sans-serif" font-size="21" font-weight="700" fill="#7E22CE"><tspan x="690" dy="0">2. ProtectedRoute allows access</tspan></text><line x1="870" y1="500" x2="1230" y2="500" stroke="#2563EB" stroke-width="4"  marker-end="url(#arrow)"/><text x="1050" y="484" text-anchor="middle" font-family="Inter, Arial, sans-serif" font-size="21" font-weight="700" fill="#2563EB"><tspan x="1050" dy="0">3. listTasks() → request()</tspan></text><line x1="1230" y1="605" x2="1590" y2="605" stroke="#B91C1C" stroke-width="4"  marker-end="url(#arrow)"/><text x="1410" y="589" text-anchor="middle" font-family="Inter, Arial, sans-serif" font-size="21" font-weight="700" fill="#B91C1C"><tspan x="1410" dy="0">4. GET /tasks?limit=20&amp;offset=0</tspan></text><line x1="1590" y1="710" x2="1230" y2="710" stroke="#B91C1C" stroke-width="4"  marker-end="url(#arrow)"/><text x="1410" y="694" text-anchor="middle" font-family="Inter, Arial, sans-serif" font-size="21" font-weight="700" fill="#B91C1C"><tspan x="1410" dy="0">5. Return Task[] JSON</tspan></text><line x1="1230" y1="815" x2="870" y2="815" stroke="#2563EB" stroke-width="4"  marker-end="url(#arrow)"/><text x="1050" y="799" text-anchor="middle" font-family="Inter, Arial, sans-serif" font-size="21" font-weight="700" fill="#2563EB"><tspan x="1050" dy="0">6. Return typed Task[]</tspan></text><line x1="870" y1="930" x2="150" y2="930" stroke="#15803D" stroke-width="4"  marker-end="url(#arrow)"/><text x="510" y="914" text-anchor="middle" font-family="Inter, Arial, sans-serif" font-size="21" font-weight="700" fill="#15803D"><tspan x="510" dy="0">7. Render TaskCard × N</tspan></text></svg>