<?xml version="1.0" encoding="UTF-8"?><svg xmlns="http://www.w3.org/2000/svg" width="1920" height="1080" viewBox="0 0 1920 1080"><defs><marker id="arrow" markerWidth="12" markerHeight="12" refX="10" refY="5" orient="auto" markerUnits="strokeWidth"><path d="M0,0 L0,10 L10,5 z" fill="context-stroke"/></marker><filter id="shadow" x="-20%" y="-20%" width="140%" height="140%"><feDropShadow dx="0" dy="8" stdDeviation="12" flood-color="#0F172A" flood-opacity="0.10"/></filter></defs><rect width="100%" height="100%" fill="#F8FAFC"/><text x="80" y="78" text-anchor="start" font-family="Inter, Arial, sans-serif" font-size="44" font-weight="800" fill="#172033"><tspan x="80" dy="0">Actual TaskListPage Component Tree</tspan></text><text x="80" y="118" text-anchor="start" font-family="Inter, Arial, sans-serif" font-size="22" font-weight="450" fill="#58657A"><tspan x="80" dy="0">Solid boxes are reusable components; dashed boxes are inline page markup</tspan></text><rect x="760" y="145" width="400" height="76" rx="18" fill="#FAF5FF" stroke="#7E22CE" stroke-width="3"/><text x="960" y="193" text-anchor="middle" font-family="Inter, Arial, sans-serif" font-size="28" font-weight="850" fill="#7E22CE"><tspan x="960" dy="0">Layout</tspan></text><line x1="960" y1="221" x2="960" y2="270" stroke="#CBD5E1" stroke-width="4" /><rect x="735" y="270" width="450" height="82" rx="18" fill="#F0FDF4" stroke="#15803D" stroke-width="3"/><text x="960" y="321" text-anchor="middle" font-family="Inter, Arial, sans-serif" font-size="30" font-weight="850" fill="#15803D"><tspan x="960" dy="0">TaskListPage</tspan></text><line x1="960" y1="352" x2="960" y2="405" stroke="#CBD5E1" stroke-width="4" /><line x1="250" y1="405" x2="1670" y2="405" stroke="#CBD5E1" stroke-width="4" /><line x1="250" y1="405" x2="250" y2="460" stroke="#CBD5E1" stroke-width="4" /><rect x="95" y="460" width="310" height="82" rx="18" fill="#F1F5F9" stroke="#172033" stroke-width="2" stroke-dasharray="10 7"/><text x="250" y="511" text-anchor="middle" font-family="Inter, Arial, sans-serif" font-size="22" font-weight="800" fill="#172033"><tspan x="250" dy="0">Header + Create Link</tspan></text><line x1="600" y1="405" x2="600" y2="460" stroke="#CBD5E1" stroke-width="4" /><rect x="445" y="460" width="310" height="82" rx="18" fill="#FFFBEB" stroke="#B45309" stroke-width="2" stroke-dasharray="10 7"/><text x="600" y="511" text-anchor="middle" font-family="Inter, Arial, sans-serif" font-size="22" font-weight="800" fill="#B45309"><tspan x="600" dy="0">Filter buttons</tspan></text><line x1="960" y1="405" x2="960" y2="460" stroke="#CBD5E1" stroke-width="4" /><rect x="805" y="460" width="310" height="82" rx="18" fill="#FEF2F2" stroke="#B91C1C" stroke-width="2" /><text x="960" y="511" text-anchor="middle" font-family="Inter, Arial, sans-serif" font-size="22" font-weight="800" fill="#B91C1C"><tspan x="960" dy="0">ErrorMessage</tspan></text><line x1="1320" y1="405" x2="1320" y2="460" stroke="#CBD5E1" stroke-width="4" /><rect x="1165" y="460" width="310" height="82" rx="18" fill="#F0FDFA" stroke="#0F766E" stroke-width="2" /><text x="1320" y="511" text-anchor="middle" font-family="Inter, Arial, sans-serif" font-size="22" font-weight="800" fill="#0F766E"><tspan x="1320" dy="0">TaskCard × N</tspan></text><line x1="1670" y1="405" x2="1670" y2="460" stroke="#CBD5E1" stroke-width="4" /><rect x="1515" y="460" width="310" height="82" rx="18" fill="#EEF2FF" stroke="#4F46E5" stroke-width="2" /><text x="1670" y="511" text-anchor="middle" font-family="Inter, Arial, sans-serif" font-size="22" font-weight="800" fill="#4F46E5"><tspan x="1670" dy="0">Button: Load more</tspan></text><line x1="1320" y1="542" x2="1320" y2="620" stroke="#CBD5E1" stroke-width="4" /><line x1="620" y1="620" x2="1700" y2="620" stroke="#CBD5E1" stroke-width="4" /><line x1="620" y1="620" x2="620" y2="690" stroke="#CBD5E1" stroke-width="4" /><rect x="465" y="690" width="310" height="82" rx="18" fill="#FEF2F2" stroke="#B91C1C" stroke-width="2"/><text x="620" y="741" text-anchor="middle" font-family="Inter, Arial, sans-serif" font-size="22" font-weight="800" fill="#B91C1C"><tspan x="620" dy="0">PriorityBadge</tspan></text><line x1="980" y1="620" x2="980" y2="690" stroke="#CBD5E1" stroke-width="4" /><rect x="825" y="690" width="310" height="82" rx="18" fill="#F0FDF4" stroke="#15803D" stroke-width="2"/><text x="980" y="741" text-anchor="middle" font-family="Inter, Arial, sans-serif" font-size="22" font-weight="800" fill="#15803D"><tspan x="980" dy="0">StatusBadge</tspan></text><line x1="1340" y1="620" x2="1340" y2="690" stroke="#CBD5E1" stroke-width="4" /><rect x="1185" y="690" width="310" height="82" rx="18" fill="#F1F5F9" stroke="#172033" stroke-width="2"/><text x="1340" y="741" text-anchor="middle" font-family="Inter, Arial, sans-serif" font-size="22" font-weight="800" fill="#172033"><tspan x="1340" dy="0">View + Edit Links</tspan></text><line x1="1700" y1="620" x2="1700" y2="690" stroke="#CBD5E1" stroke-width="4" /><rect x="1545" y="690" width="310" height="82" rx="18" fill="#EEF2FF" stroke="#4F46E5" stroke-width="2"/><text x="1700" y="741" text-anchor="middle" font-family="Inter, Arial, sans-serif" font-size="22" font-weight="800" fill="#4F46E5"><tspan x="1700" dy="0">Complete/Delete Buttons</tspan></text><line x1="960" y1="542" x2="960" y2="835" stroke="#CBD5E1" stroke-width="3" stroke-dasharray="10 7"/><rect x="760" y="835" width="400" height="78" rx="18" fill="#FFFBEB" stroke="#B45309" stroke-width="2"/><text x="960" y="884" text-anchor="middle" font-family="Inter, Arial, sans-serif" font-size="22" font-weight="800" fill="#B45309"><tspan x="960" dy="0">ConfirmDialog (when deleting)</tspan></text><rect x="300" y="950" width="1320" height="62" rx="16" fill="#FFFFFF" stroke="#CBD5E1" stroke-width="2"/><text x="960" y="989" text-anchor="middle" font-family="Inter, Arial, sans-serif" font-size="22" font-weight="650" fill="#58657A"><tspan x="960" dy="0">The implementation keeps small structures inline and extracts only genuinely reusable UI.</tspan></text></svg>